<?xml version="1.0" encoding="iso-8859-1"?>
<!-- Generator: Adobe Illustrator 19.0.0, SVG Export Plug-In . SVG Version: 6.00 Build 0)  -->
<svg version="1.1" id="Layer_1" xmlns="http://www.w3.org/2000/svg" xmlns:xlink="http://www.w3.org/1999/xlink" x="0px" y="0px"
	 viewBox="0 0 512 512" style="enable-background:new 0 0 512 512;" xml:space="preserve">
<rect x="21.664" y="68.64" style="fill:#F33052;" width="468.64" height="286"/>
<path d="M480,77.632V346.96H32V77.632H480 M488,45.632H24c-13.2,0-24,10.8-24,24V354.96c0,13.2,10.8,24,24,24h464
	c13.2,0,24-10.8,24-24V69.632C512,56.432,501.2,45.632,488,45.632L488,45.632z"/>
<rect x="216" y="378.976" style="fill:#494949;" width="80" height="71.328"/>
<rect x="142.992" y="434.368" width="225.92" height="32"/>
<polygon points="216,378.976 282.752,378.976 216,408.72 "/>
<g style="opacity:0.35;">
	<polygon style="fill:#FFFFFF;" points="32,77.632 168,77.632 32,160.64 	"/>
</g>
<g>
	<path style="fill:#FFFFFF;" d="M199.712,223.504h16.256v2.944c0,11.872-2.176,19.552-6.496,23.024s-13.92,5.216-28.752,5.216
		c-16.832,0-27.184-2.752-31.056-8.256s-5.824-20.208-5.824-44.112c0-14.08,2.624-23.344,7.872-27.776s16.24-6.656,32.944-6.656
		c12.176,0,20.304,1.824,24.368,5.472s6.128,10.88,6.128,21.712l0.064,1.936H198.96v-2.192c0-5.584-1.04-9.152-3.152-10.72
		s-6.912-2.336-14.4-2.336c-10.048,0-16.08,1.232-18.096,3.68s-3.024,9.744-3.024,21.872c0,16.336,0.912,26,2.72,28.992
		s7.664,4.496,17.6,4.496c8.048,0,13.264-0.832,15.664-2.496s3.6-5.328,3.6-11.008L199.712,223.504z"/>
	<path style="fill:#FFFFFF;" d="M289.472,193.504h-15.808c-0.08-0.784-0.128-1.376-0.128-1.744c-0.368-4.784-1.44-7.808-3.184-9.024
		s-5.872-1.84-12.368-1.84c-7.664,0-12.672,0.704-15.024,2.128s-3.536,4.4-3.536,8.944c0,5.376,0.96,8.608,2.88,9.68
		s8.256,1.92,19.008,2.496c12.704,0.704,20.928,2.528,24.656,5.44s5.6,8.976,5.6,18.192c0,11.328-2.192,18.656-6.56,21.968
		s-14.016,4.976-28.944,4.976c-13.424,0-22.336-1.632-26.72-4.88s-6.592-9.84-6.592-19.744l-0.064-3.12H238.4l0.064,1.808
		c0,5.968,1.04,9.6,3.12,10.944s7.76,2,17.056,2c7.248,0,11.872-0.768,13.872-2.32s3.008-5.104,3.008-10.688
		c0-4.128-0.768-6.864-2.288-8.224s-4.8-2.176-9.84-2.464l-8.944-0.56c-13.504-0.784-22.128-2.672-25.872-5.632
		s-5.632-9.312-5.632-19.056c0-9.968,2.272-16.592,6.784-19.904s13.552-4.976,27.088-4.976c12.832,0,21.488,1.52,25.936,4.56
		s6.688,8.976,6.688,17.808v3.232H289.472z"/>
	<path style="fill:#FFFFFF;" d="M366.096,193.504h-15.808c-0.08-0.784-0.128-1.376-0.128-1.744c-0.368-4.784-1.44-7.808-3.184-9.024
		s-5.872-1.84-12.368-1.84c-7.664,0-12.672,0.704-15.024,2.128s-3.536,4.4-3.536,8.944c0,5.376,0.96,8.608,2.88,9.68
		s8.256,1.92,19.008,2.496c12.704,0.704,20.928,2.528,24.656,5.44s5.6,8.976,5.6,18.192c0,11.328-2.192,18.656-6.56,21.968
		s-14.016,4.976-28.944,4.976c-13.424,0-22.336-1.632-26.72-4.88s-6.592-9.84-6.592-19.744l-0.064-3.12h15.744l0.064,1.808
		c0,5.968,1.04,9.6,3.12,10.944s7.76,2,17.056,2c7.248,0,11.872-0.768,13.872-2.32s3.008-5.104,3.008-10.688
		c0-4.128-0.768-6.864-2.288-8.224s-4.8-2.176-9.84-2.464l-8.944-0.56c-13.504-0.784-22.128-2.672-25.872-5.632
		s-5.632-9.312-5.632-19.056c0-9.968,2.272-16.592,6.784-19.904s13.552-4.976,27.088-4.976c12.832,0,21.488,1.52,25.936,4.56
		s6.688,8.976,6.688,17.808V193.504z"/>
</g>
<g>
</g>
<g>
</g>
<g>
</g>
<g>
</g>
<g>
</g>
<g>
</g>
<g>
</g>
<g>
</g>
<g>
</g>
<g>
</g>
<g>
</g>
<g>
</g>
<g>
</g>
<g>
</g>
<g>
</g>
</svg>
