<?xml version="1.0" encoding="iso-8859-1"?>
<!-- Generator: Adobe Illustrator 19.0.0, SVG Export Plug-In . SVG Version: 6.00 Build 0)  -->
<svg version="1.1" id="Layer_1" xmlns="http://www.w3.org/2000/svg" xmlns:xlink="http://www.w3.org/1999/xlink" x="0px" y="0px"
	 viewBox="0 0 512 512" style="enable-background:new 0 0 512 512;" xml:space="preserve">
<rect x="21.664" y="68.64" style="fill:#F33052;" width="468.64" height="286"/>
<path d="M480,77.632V346.96H32V77.632H480 M488,45.632H24c-13.2,0-24,10.8-24,24V354.96c0,13.2,10.8,24,24,24h464
	c13.2,0,24-10.8,24-24V69.632C512,56.432,501.2,45.632,488,45.632L488,45.632z"/>
<rect x="216" y="378.976" style="fill:#494949;" width="80" height="71.328"/>
<rect x="142.992" y="434.368" width="225.92" height="32"/>
<polygon points="216,378.976 282.752,378.976 216,408.72 "/>
<g style="opacity:0.35;">
	<polygon style="fill:#FFFFFF;" points="32,77.632 168,77.632 32,160.64 	"/>
</g>
<g>
	<path style="fill:#FFFFFF;" d="M165.376,167.296v85.312h-16.192v-36.88h-40v36.88H92.992v-85.312h16.192v34.816h40v-34.816H165.376
		z"/>
	<path style="fill:#FFFFFF;" d="M214.368,181.792v70.816h-16.192v-70.816h-24.624v-14.496h66.32v14.496H214.368z"/>
	<path style="fill:#FFFFFF;" d="M347.808,167.296v85.312h-16.192v-46.496c0-3.712,0.112-7.92,0.32-12.624l0.32-6.368l0.32-6.32
		h-0.496l-1.936,5.936l-1.872,5.936c-1.744,5.328-3.104,9.28-4.064,11.808l-18.768,48.128h-14.752l-18.944-47.744
		c-1.04-2.624-2.416-6.56-4.128-11.808l-1.936-5.936l-1.936-5.872h-0.496l0.32,6.192l0.32,6.256
		c0.256,4.832,0.368,8.976,0.368,12.432v46.496h-16.192v-85.312h26.368l15.248,39.504c1.04,2.752,2.416,6.688,4.128,11.808
		l1.872,5.936l1.936,5.872h0.56l1.808-5.872l1.872-5.872c1.552-4.96,2.88-8.88,4-11.744l15.008-39.632h26.944V167.296z"/>
	<path style="fill:#FFFFFF;" d="M378.992,167.296v70.816h40v14.496H362.8v-85.312L378.992,167.296L378.992,167.296z"/>
</g>
<g>
</g>
<g>
</g>
<g>
</g>
<g>
</g>
<g>
</g>
<g>
</g>
<g>
</g>
<g>
</g>
<g>
</g>
<g>
</g>
<g>
</g>
<g>
</g>
<g>
</g>
<g>
</g>
<g>
</g>
</svg>
