<?xml version="1.0" encoding="iso-8859-1"?>
<!-- Generator: Adobe Illustrator 19.0.0, SVG Export Plug-In . SVG Version: 6.00 Build 0)  -->
<svg version="1.1" id="Layer_1" xmlns="http://www.w3.org/2000/svg" xmlns:xlink="http://www.w3.org/1999/xlink" x="0px" y="0px"
	 viewBox="0 0 512 512" style="enable-background:new 0 0 512 512;" xml:space="preserve">
<rect x="21.664" y="68.64" width="468.64" height="286"/>
<path d="M480,77.632V346.96H32V77.632H480 M488,45.632H24c-13.2,0-24,10.8-24,24V354.96c0,13.2,10.8,24,24,24h464
	c13.2,0,24-10.8,24-24V69.632C512,56.432,501.2,45.632,488,45.632L488,45.632z"/>
<rect x="216" y="378.976" style="fill:#494949;" width="80" height="71.328"/>
<rect x="142.992" y="434.368" width="225.92" height="32"/>
<polygon points="216,378.976 282.752,378.976 216,408.72 "/>
<g style="opacity:0.35;">
	<polygon style="fill:#FFFFFF;" points="32,77.632 168,77.632 32,160.64 	"/>
</g>
<g>
	<path style="fill:#F33052;" d="M158.624,162.192v58.88c0,10.96-1.808,18.224-5.44,21.808s-11.008,5.376-22.128,5.376
		c-11.824,0-19.52-1.728-23.024-5.184s-5.28-11.024-5.28-22.688l0.192-6.32h15.44c0.256,3.168,0.368,5.536,0.368,7.12
		c0,1.504,0.064,3.312,0.192,5.44c0.256,5.168,4.352,7.744,12.32,7.744c4.752,0,7.792-0.928,9.152-2.784s2.032-6.032,2.032-12.528
		v-56.88h16.176V162.192z"/>
	<path style="fill:#F33052;" d="M225.248,231.12h-36.816l-5.312,16.368H166l28.368-85.312h24.32l28.816,85.312h-16.816
		L225.248,231.12z M221.504,219.184l-14.752-44.432l-14.496,44.432H221.504z"/>
	<path style="fill:#F33052;" d="M309.504,162.192h17.12l-27.504,85.312h-24.88l-27.248-85.312h16.816l16,48.32
		c1.504,4.624,3.728,12.368,6.688,23.248h0.432l1.632-5.808c2-7.248,3.696-13.04,5.12-17.376L309.504,162.192z"/>
	<path style="fill:#F33052;" d="M385.312,231.12h-36.816l-5.312,16.368h-17.12l28.368-85.312h24.32l28.816,85.312h-16.816
		L385.312,231.12z M381.568,219.184l-14.752-44.432l-14.496,44.432H381.568z"/>
</g>
<g>
</g>
<g>
</g>
<g>
</g>
<g>
</g>
<g>
</g>
<g>
</g>
<g>
</g>
<g>
</g>
<g>
</g>
<g>
</g>
<g>
</g>
<g>
</g>
<g>
</g>
<g>
</g>
<g>
</g>
</svg>
