<?xml version="1.0" encoding="iso-8859-1"?>
<!-- Generator: Adobe Illustrator 19.0.0, SVG Export Plug-In . SVG Version: 6.00 Build 0)  -->
<svg version="1.1" id="Layer_1" xmlns="http://www.w3.org/2000/svg" xmlns:xlink="http://www.w3.org/1999/xlink" x="0px" y="0px"
	 viewBox="0 0 512.001 512.001" style="enable-background:new 0 0 512.001 512.001;" xml:space="preserve">
<g>
	<g>
		<path d="M99.281,362.953c-4.294-2.147-8.971-0.357-12.881,4.294l-23.616,32.203l-23.616-32.203
			c-3.074-4.4-8.703-5.28-12.882-4.294c-4.672,1.103-6.44,6.44-6.44,10.735v85.874c0,6.44,4.294,10.735,10.735,10.735
			s10.735-4.294,10.735-10.735v-53.672l12.88,17.175c4.294,6.44,12.882,6.44,17.175,0l12.881-17.175v53.672
			c-0.001,6.441,4.293,10.735,10.734,10.735c6.44,0,10.735-4.294,10.735-10.735v-85.874
			C105.72,369.393,103.574,365.1,99.281,362.953z"/>
	</g>
</g>
<g>
	<g>
		<path d="M258.148,382.274c12.881,0,19.132,7.13,21.468,10.735c5.357,8.267,8.827,9.906,14.54,7.764
			c7.044-2.642,7.422-6.038,6.929-9.91c-2.146-17.175-19.322-30.055-42.937-30.055c-23.616,0-42.937,15.029-42.937,32.203
			c0,17.174,12.931,27.371,38.693,31.664l4.244,0.538c17.175,2.146,21.418,6.129,21.355,11.538
			c-0.08,6.788-10.622,12.077-23.502,12.077c-12.882,0-19.079-6.92-21.468-10.735c-3.933-6.278-6.44-10.735-10.734-10.735
			c-6.44,0-11.909,5.617-10.735,10.735c3.605,16.394,19.322,30.055,42.937,30.055c23.616,0,42.937-15.029,42.937-32.203
			c0-17.175-12.605-27.609-38.369-31.902l-2.421-0.3c-19.322-2.146-21.479-8.002-21.468-10.735
			C236.697,388.715,245.267,382.274,258.148,382.274z"/>
	</g>
</g>
<g>
	<g>
		<path d="M481.419,448.827h-32.203v-75.14c0-6.44-4.294-10.735-10.735-10.735c-6.44,0-10.735,4.294-10.735,10.735v85.874
			c0,6.44,4.294,10.735,10.735,10.735h42.937c6.44,0,10.735-4.294,10.735-10.735C492.153,453.12,487.86,448.827,481.419,448.827z"/>
	</g>
</g>
<g>
	<g>
		<path d="M404.134,450.973c2.146-4.294,2.281-8.587,2.281-12.881l-0.135-42.936h-0.001c0-17.175-15.029-32.203-32.203-32.203
			h-21.468c-17.175,0-32.203,15.029-32.203,32.203v42.937c0,17.175,15.029,32.203,32.203,32.203c5.367,0,16.101,0,21.468,0
			c4.294,0,8.587-2.147,12.882-4.294c2.146,2.147,4.797,4.294,9.09,4.294c2.147,0,5.937-2.148,8.085-4.294
			C408.428,461.706,408.428,455.267,404.134,450.973z M384.81,433.799v-0.001l-2.146-2.146c-4.294-4.294-10.735-4.294-15.029,0
			c-4.294,4.294-4.294,10.735,0,15.029l2.146,2.147h-17.175c-6.44,0-10.735-4.294-10.735-10.735v-42.937
			c0-6.44,4.294-10.735,10.735-10.735h21.468c6.44,0,10.735,4.294,10.735,10.735v38.642l0.001,0.001H384.81z"/>
	</g>
</g>
<g>
	<g>
		<path d="M185.154,405.891c-3.895-2.807-11.884-1.029-15.029,4.294l-12.882,23.616l-12.882-23.616
			c-2.146-4.294-8.756-6.891-15.029-4.294c-4.436,1.837-7.073,8.72-4.294,15.029l19.322,38.643l-19.322,38.643
			c-2.368,4.554,0.864,10.626,7.349,12.636c4.466,1.384,9.953,2.841,14.123-4.049l42.937-85.874
			C191.594,416.625,190.081,409.442,185.154,405.891z"/>
	</g>
</g>
<g>
	<g>
		<path d="M406.781,125.457c-4.047-2.916-10.379-2.779-12.609-0.548c-33.457,20.074-82.529,31.227-138.292,31.227
			s-107.064-11.152-138.292-31.227c-6.503-4.483-11.659-1.966-14.219-0.122c-4.047,2.916-6.709,5.367-4.697,13.334
			c10.94,43.306,85.829,62.625,159.435,62.625s149.68-19.102,154.544-60.53C413.388,133.952,409.34,127.301,406.781,125.457z"/>
	</g>
</g>
<g>
	<g>
		<path d="M406.781,192.545c-4.047-2.916-10.379-2.779-12.609-0.548c-33.457,20.074-82.529,31.227-138.292,31.227
			s-107.064-11.152-138.292-31.227c-6.503-4.483-11.659-1.966-14.219-0.122c-4.047,2.916-6.709,5.367-4.697,13.334
			c10.94,43.306,85.829,62.625,159.435,62.625s149.68-19.101,154.544-60.529C413.388,201.041,409.34,194.39,406.781,192.545z"/>
	</g>
</g>
<g>
	<g>
		<path d="M406.781,260.306c-4.047-2.916-10.379-2.779-12.609-0.548c-33.457,20.074-82.529,31.227-138.292,31.227
			s-107.064-11.152-138.292-31.227c-6.503-4.483-11.659-1.966-14.219-0.122c-4.047,2.916-6.709,5.367-4.697,13.334
			c10.94,43.306,85.829,62.625,159.435,62.625s149.68-19.102,154.544-60.53C413.388,268.802,409.34,262.15,406.781,260.306z"/>
	</g>
</g>
<g>
	<g>
		<path d="M255.664,0C179.827,0,99.529,24.536,99.529,66.915c0,42.38,80.298,66.914,156.135,66.914s156.134-24.536,156.134-66.915
			C411.798,24.534,331.5,0,255.664,0z"/>
	</g>
</g>
<g>
</g>
<g>
</g>
<g>
</g>
<g>
</g>
<g>
</g>
<g>
</g>
<g>
</g>
<g>
</g>
<g>
</g>
<g>
</g>
<g>
</g>
<g>
</g>
<g>
</g>
<g>
</g>
<g>
</g>
</svg>
