<?xml version="1.0" encoding="iso-8859-1"?>
<!-- Generator: Adobe Illustrator 19.0.0, SVG Export Plug-In . SVG Version: 6.00 Build 0)  -->
<svg version="1.1" id="Layer_1" xmlns="http://www.w3.org/2000/svg" xmlns:xlink="http://www.w3.org/1999/xlink" x="0px" y="0px"
	 viewBox="0 0 512 512" style="enable-background:new 0 0 512 512;" xml:space="preserve">
<rect x="21.664" y="68.64" style="fill:#F33052;" width="468.64" height="286"/>
<path d="M480,77.632V346.96H32V77.632H480 M488,45.632H24c-13.2,0-24,10.8-24,24V354.96c0,13.2,10.8,24,24,24h464
	c13.2,0,24-10.8,24-24V69.632C512,56.432,501.2,45.632,488,45.632L488,45.632z"/>
<rect x="216" y="378.976" style="fill:#494949;" width="80" height="71.328"/>
<rect x="142.992" y="434.368" width="225.92" height="32"/>
<polygon points="216,378.976 282.752,378.976 216,408.72 "/>
<g style="opacity:0.35;">
	<polygon style="fill:#FFFFFF;" points="32,77.632 168,77.632 32,160.64 	"/>
</g>
<g>
	<path style="fill:#FFFFFF;" d="M139.152,252.848v-85.312h34.368h4.256c11.552,0,19.328,2,23.344,6.032s6.032,11.776,6.032,23.28
		c0,11.408-1.92,19.008-5.744,22.752s-11.584,5.632-23.248,5.632l-3.76,0.064h-19.056v27.568h-16.192V252.848z M155.344,211.664
		h18.432c7.328,0,11.984-0.848,13.968-2.528s2.976-5.68,2.976-11.968c0-7.216-0.832-11.68-2.464-13.408s-5.92-2.592-12.848-2.592
		h-20.064V211.664z"/>
	<path style="fill:#FFFFFF;" d="M289.84,167.536v85.312h-16.192v-36.88h-40v36.88h-16.192v-85.312h16.192v34.816h40v-34.816H289.84z
		"/>
	<path style="fill:#FFFFFF;" d="M304.848,252.848v-85.312h34.368h4.256c11.552,0,19.328,2,23.344,6.032s6.032,11.776,6.032,23.28
		c0,11.408-1.92,19.008-5.744,22.752s-11.584,5.632-23.248,5.632l-3.744,0.064h-19.056v27.568h-16.208V252.848z M321.024,211.664
		h18.432c7.328,0,11.984-0.848,13.968-2.528s2.976-5.68,2.976-11.968c0-7.216-0.832-11.68-2.464-13.408s-5.92-2.592-12.848-2.592
		h-20.064L321.024,211.664L321.024,211.664z"/>
</g>
<g>
</g>
<g>
</g>
<g>
</g>
<g>
</g>
<g>
</g>
<g>
</g>
<g>
</g>
<g>
</g>
<g>
</g>
<g>
</g>
<g>
</g>
<g>
</g>
<g>
</g>
<g>
</g>
<g>
</g>
</svg>
