<?xml version="1.0" encoding="utf-8"?>
<!-- Generator: Adobe Illustrator 21.0.0, SVG Export Plug-In . SVG Version: 6.00 Build 0)  -->
<svg version="1.1" id="Layer_1" xmlns="http://www.w3.org/2000/svg" xmlns:xlink="http://www.w3.org/1999/xlink" x="0px" y="0px"
	 viewBox="0 0 630 630" style="enable-background:new 0 0 630 630;" xml:space="preserve">
<style type="text/css">
	.st0{fill:#FFFFFF;}
	.st1{fill:#007ACC;}
</style>
<rect x="63" y="76" class="st0" width="548" height="539"/>
<g transform="translate(0.000000,630.000000) scale(0.100000,-0.100000)">
	<path class="st1" d="M0,3150V0h3150h3150v3150v3150H3150H0V3150z M5077,3401c160-40,282-111,394-227c58-62,144-175,151-202
		c2-8-272-192-438-295c-6-4-30,22-57,62c-81,118-166,169-296,178c-191,13-314-87-313-254c0-49,7-78,27-118c42-87,120-139,365-245
		c451-194,644-322,764-504c134-203,164-527,73-768c-100-262-348-440-697-499c-108-19-364-16-480,5c-253,45-493,170-641,334
		c-58,64-171,231-164,243c3,4,29,20,58,37c28,16,134,77,234,135l181,105l38-56c53-81,169-192,239-229c201-106,477-91,613,31
		c58,53,82,108,82,189c0,73-9,105-47,160c-49,70-149,129-433,252c-325,140-465,227-593,365c-74,80-144,208-173,315
		c-24,89-30,312-11,402c67,314,304,533,646,598C4710,3436,4968,3428,5077,3401z M3598,3138l2-258h-410h-410V1715V550h-290h-290v1165
		v1165h-410h-410v253c0,140,3,257,7,260c3,4,502,6,1107,5l1101-3L3598,3138z"/>
</g>
</svg>
